PathFileType	4	(X/Y/Z)	D:\Long Term Storage\D'Arcy Smith\Coord6.trc
DataRate	CameraRate	NumFrames	NumMarkers	Units	OrigDataRate	OrigDataStartFrame	OrigNumFrames
120.00	120.00	      60	4	mm	120.00	1824	      4863
Frame#	Time	M1			M2			M3			M4			
		X1	Y1	Z1	X2	Y2	Z2	X3	Y3	Z3	X4	Y4	Z4	

1824	15.192	1068.16406	301.00821	489.17984	1632.55713	304.28516	581.79980							
1825	15.200	1066.25867	300.49271	502.92114	1631.44836	306.96811	593.13196							
1826	15.208	1063.78247	300.72989	516.51251	1630.50757	310.20380	605.21735							
1827	15.217	1062.13538	300.96365	529.73877	1629.19458	313.11087	615.73749							
1828	15.225	1060.49756	301.80334	542.92633	1627.59167	315.52444	624.66876							
1829	15.233	1058.45850	303.52444	556.27832	1626.05603	318.43387	633.41541							
1830	15.242	1057.00110	305.98401	568.86798	1624.99890	321.76236	641.97705							
1831	15.250	1055.04456	308.83032	581.11652	1623.63660	324.68396	649.31116							
1832	15.258	1053.23120	312.34335	592.57507	1621.79053	326.86435	655.92468							
1833	15.267	1051.24060	316.00861	603.43451	1620.56970	329.49585	662.00647							
1834	15.275	1048.76135	320.63519	614.24567	1619.35059	331.63480	667.37653							
1835	15.283	1047.03284	325.10098	624.06738	1618.27405	333.54633	672.02979							
1836	15.292	1044.96472	329.40219	633.40942	1617.01819	334.95898	675.92828							
1837	15.300	1042.95361	334.24261	642.00714	1616.14478	336.43500	679.40112							
1838	15.308	1040.67004	338.48331	649.76263	1615.44910	337.50287	682.36047							
1839	15.317	1038.95386	342.99893	657.12006	1614.54761	338.11264	684.26007							
1840	15.325	1036.73120	347.32141	663.97015	1613.81018	338.66571	685.86609							
1841	15.333	1034.77502	351.39020	670.11945	1613.33911	338.93423	686.83276							
1842	15.342	1032.84033	354.87234	675.48499	1612.79675	338.97986	687.05103							
1843	15.350	1031.06287	358.36194	680.55261	1612.47668	338.80807	686.50909							
1844	15.358	1029.31494	361.80756	684.63171	1612.17200	338.38187	685.52344							
1845	15.367	1027.28455	364.30685	688.21997	1611.83752	337.74091	683.70758							
1846	15.375	1025.77869	366.79556	691.17535	1611.99854	336.93536	681.74518							
1847	15.383	1024.04272	368.97220	693.27118	1612.03650	335.71848	678.65466							
1848	15.392	1022.31482	370.63303	694.58215	1611.97607	334.39001	674.85675							
1849	15.400	1021.09058	371.91345	695.30127	1612.19434	333.33527	670.81787							
1850	15.408	1019.80725	372.84970	695.10022	1611.96448	331.38126	665.01758							
1851	15.417	1018.71240	373.13525	694.28186	1611.81238	329.63071	658.79047							
1852	15.425	1017.76660	373.15778	692.58459	1611.15308	326.90683	650.89429							
1853	15.433	1017.45435	372.41257	690.12787	1611.18311	325.02487	642.83795							
1854	15.442	1016.78241	371.58545	686.79932	1610.24585	321.97406	632.78894							
1855	15.450	1016.59735	369.99313	682.56964	1610.20886	319.86084	622.60724							
1856	15.458	1016.75024	367.92575	677.91241	1609.83838	317.82690	611.21136							
1857	15.467	1017.32928	365.24738	672.05359	1608.83252	315.45114	598.00000							
1858	15.475	1018.25964	362.35489	665.45636	1608.11829	312.80606	583.99988							
1859	15.483	1018.96454	358.64151	657.99139	1607.04126	309.88315	569.07825							
1860	15.492	1020.71344	354.90149	649.87451	1606.68591	307.72113	553.38013							
1861	15.500	1022.58691	350.76297	640.85358	1605.97021	306.19452	537.51782							
1862	15.508	1024.60400	346.84705	631.08484	1605.51501	305.66043	521.55872							
1863	15.517	1027.58008	341.77557	620.23657	1605.00403	304.66354	504.54327							
1864	15.525	1030.57642	337.43616	609.06189	1604.11963	305.47107	488.18707							
1865	15.533	1033.86621	333.09622	597.39124	1603.54810	305.98444	471.18039							
1866	15.542	1037.23853	328.55905	584.70441	1603.33948	307.86484	455.36380							
1867	15.550	1041.05603	324.84427	571.75275	1602.92810	309.22672	439.32370							
1868	15.558	1045.36597	321.32480	558.18372	1602.35242	311.98712	423.09235							
1869	15.567	1049.96606	318.15298	544.11536	1602.12817	315.80646	408.18491							
1870	15.575	1054.54163	315.58109	529.77124	1602.09485	320.53235	395.10681							
1871	15.583	1058.90771	314.09763	514.53540	1600.37793	324.51813	380.98703							
1872	15.592	1063.64038	312.75061	499.47748	1600.56628	330.06458	367.86688							
1873	15.600	1068.51978	312.06836	484.34668	1599.95715	335.44321	355.06104							
1874	15.608	1073.57227	312.20169	469.11581	1599.70972	341.63303	344.01913							
1875	15.617	1078.58228	312.74054	453.95856	1599.81433	347.55377	333.89676							
1876	15.625	1083.87488	313.77115	439.23734	1599.73853	353.60797	324.38080							
1877	15.633	1088.00854	315.84320	424.02701	1600.19104	359.70380	315.85751							
1878	15.642	1093.77466	318.70322	409.81082	1601.04700	365.76837	309.11880							
1879	15.650	1098.11047	321.99832	395.50089	1601.67102	371.41171	301.99298							
1880	15.658	1102.39270	326.03537	381.44046	1603.13574	376.96558	295.90344							
1881	15.667	1106.77527	330.58774	367.72641	1603.88000	382.24200	290.47476							
1882	15.675	1110.29004	335.69659	354.78973	1604.95239	386.95868	285.73279							
1883	15.683	1113.72034	341.19650	342.13010	1605.98340	391.49289	281.53128							
